<svg height="35" viewBox="0 0 35 35" width="35" xmlns="http://www.w3.org/2000/svg"><circle cx="17.5" cy="17.5" fill="#2496ed" r="17.5"/><path d="m4.141 14.665a2.071 2.071 0 1 1 -2.071-2.071 2.071 2.071 0 0 1 2.071 2.071zm5.68 1.528a9.832 9.832 0 0 0 -9.278-9.279.517.517 0 0 0 -.543.518v1.554a.518.518 0 0 0 .481.514 7.245 7.245 0 0 1 6.75 6.75.518.518 0 0 0 .518.481h1.551a.517.517 0 0 0 .521-.539zm4.664.009a14.5 14.5 0 0 0 -13.951-13.952.517.517 0 0 0 -.534.518v1.554a.519.519 0 0 0 .5.517 11.9 11.9 0 0 1 11.4 11.4.519.519 0 0 0 .517.5h1.554a.517.517 0 0 0 .517-.534z" fill="#fff" transform="translate(10.069 8.277)"/></svg>