<svg height="35" viewBox="0 0 35 35" width="35" xmlns="http://www.w3.org/2000/svg"><circle cx="17.5" cy="17.5" fill="#2496ed" r="17.5"/><path d="m14.853 6.732c.011.147.011.294.011.441a9.587 9.587 0 0 1 -9.654 9.653 9.588 9.588 0 0 1 -5.21-1.526 7.019 7.019 0 0 0 .819.042 6.8 6.8 0 0 0 4.213-1.442 3.4 3.4 0 0 1 -3.172-2.353 4.279 4.279 0 0 0 .64.053 3.588 3.588 0 0 0 .893-.116 3.393 3.393 0 0 1 -2.721-3.334v-.042a3.417 3.417 0 0 0 1.534.431 3.4 3.4 0 0 1 -1.051-4.539 9.644 9.644 0 0 0 7 3.55 3.83 3.83 0 0 1 -.084-.777 3.4 3.4 0 0 1 5.872-2.321 6.68 6.68 0 0 0 2.153-.819 3.384 3.384 0 0 1 -1.496 1.867 6.8 6.8 0 0 0 1.954-.525 7.293 7.293 0 0 1 -1.701 1.757z" fill="#fff" transform="translate(9.006 6.938)"/></svg>